<?xml version="1.0" encoding="utf-8"?>
<!-- Generator: Adobe Illustrator 27.8.0, SVG Export Plug-In . SVG Version: 6.00 Build 0)  -->
<svg version="1.1" id="Layer_1" xmlns="http://www.w3.org/2000/svg" xmlns:xlink="http://www.w3.org/1999/xlink" x="0px" y="0px"
	 viewBox="0 0 29 22" style="enable-background:new 0 0 29 22;" xml:space="preserve">
<style type="text/css">
	.st0{fill:#FFFFFF;}
</style>
<path class="st0" d="M24.28,0.42H4.72c-2.52,0-4.57,2.05-4.57,4.57v12.03c0,2.52,2.05,4.57,4.57,4.57h19.56
	c2.52,0,4.57-2.05,4.57-4.57V4.99C28.85,2.47,26.8,0.42,24.28,0.42z M4.72,1.78h19.56c1.36,0,2.51,0.85,2.98,2.05l-11.44,9.72
	c-0.77,0.65-1.88,0.65-2.65,0L1.74,3.82C2.21,2.63,3.36,1.78,4.72,1.78z M1.51,17.01V5.41l8.99,7.64l-8.26,5.98
	C1.8,18.48,1.51,17.78,1.51,17.01z M24.28,20.22H4.72c-0.49,0-0.94-0.12-1.36-0.31l8.21-5.95l0.72,0.61
	c0.64,0.54,1.42,0.81,2.2,0.81c0.78,0,1.57-0.27,2.2-0.81l0.72-0.61l8.21,5.95C25.22,20.1,24.77,20.22,24.28,20.22z M27.49,17.01
	c0,0.77-0.28,1.47-0.74,2.02l-8.26-5.98l8.99-7.64V17.01z"/>
</svg>
