<?xml version="1.0" encoding="utf-8"?>
<!-- Generator: Adobe Illustrator 27.8.0, SVG Export Plug-In . SVG Version: 6.00 Build 0)  -->
<svg version="1.1" id="Layer_1" xmlns="http://www.w3.org/2000/svg" xmlns:xlink="http://www.w3.org/1999/xlink" x="0px" y="0px"
	 viewBox="0 0 22 22" style="enable-background:new 0 0 22 22;" xml:space="preserve">
<style type="text/css">
	.st0{fill:#FFFFFF;}
</style>
<g>
	<path class="st0" d="M11.1,2.2c2.9,0,3.2,0.1,4.4,0.2c1,0.1,1.6,0.3,2,0.4c0.5,0.2,0.9,0.5,1.2,0.8s0.6,0.8,0.8,1.2
		c0.2,0.3,0.3,1,0.3,2c0.1,1.1,0.1,1.5,0,4.4s-0.1,3.2-0.2,4.4c-0.1,1-0.3,1.6-0.4,2c-0.2,0.5-0.5,0.9-0.8,1.2
		c-0.4,0.3-0.8,0.6-1.2,0.8c-0.4,0.2-1,0.3-2,0.3c-1.1,0.1-1.5,0.1-4.4,0s-3.2-0.1-4.4-0.2c-1-0.1-1.6-0.3-2-0.4
		c-0.5-0.2-0.9-0.5-1.2-0.8s-0.6-0.8-0.8-1.2c-0.2-0.4-0.3-1-0.3-2c-0.1-1.1-0.1-1.5,0-4.4s0.1-3.2,0.2-4.4c0.1-1,0.3-1.6,0.4-2
		C2.9,4,3.2,3.6,3.5,3.3s0.7-0.6,1.2-0.8c0.3-0.2,1-0.3,2-0.3C8,2.1,8.3,2.1,11.1,2.2 M11.2,0.2c-2.9,0-3.3-0.1-4.5,0
		c-1.1,0-1.9,0.1-2.6,0.5C3.4,0.9,2.8,1.3,2.2,1.9S1.2,3,0.9,3.7C0.6,4.4,0.4,5.2,0.4,6.3c-0.1,1.2-0.1,1.5-0.2,4.5s-0.1,3.3,0,4.5
		c0.1,1.1,0.2,1.9,0.5,2.6c0.2,0.7,0.6,1.3,1.2,1.9c0.6,0.6,1.2,1,1.9,1.2s1.5,0.5,2.6,0.6c1.2,0.1,1.6,0.1,4.5,0.2s3.3,0.1,4.5,0
		c1.1-0.1,1.9-0.2,2.6-0.5s1.3-0.6,1.9-1.2c0.6-0.6,1-1.2,1.2-1.9c0.3-0.7,0.5-1.5,0.6-2.6c0.1-1.1,0.1-1.6,0.2-4.5s0.1-3.3,0-4.5
		c-0.1-1.1-0.2-1.9-0.5-2.6s-0.6-1.3-1.2-1.9c-0.6-0.6-1.2-1-1.9-1.2s-1.5-0.5-2.6-0.6C14.5,0.3,14.1,0.2,11.2,0.2L11.2,0.2z"/>
	<path class="st0" d="M11.1,5.5c-3,0-5.6,2.4-5.6,5.4s2.4,5.6,5.4,5.6s5.6-2.4,5.6-5.4S14.1,5.5,11.1,5.5z M10.9,14.6
		c-2,0-3.6-1.7-3.6-3.7s1.7-3.6,3.7-3.6c2,0,3.6,1.7,3.6,3.7C14.6,13.1,12.9,14.7,10.9,14.6z"/>
	<ellipse class="st0" cx="16.9" cy="5.3" rx="1.3" ry="1.3"/>
</g>
</svg>
