<?xml version="1.0" encoding="utf-8"?>
<!-- Generator: Adobe Illustrator 27.8.0, SVG Export Plug-In . SVG Version: 6.00 Build 0)  -->
<svg version="1.1" id="Layer_1" xmlns="http://www.w3.org/2000/svg" xmlns:xlink="http://www.w3.org/1999/xlink" x="0px" y="0px"
	 viewBox="0 0 22 22" style="enable-background:new 0 0 22 22;" xml:space="preserve">
<style type="text/css">
	.st0{fill:#FFFFFF;}
</style>
<path class="st0" d="M20.9,7.6c-0.1-1.6-1.5-3.1-3.2-3.2c-4.4-0.3-8.9-0.3-13.3,0C2.6,4.5,1.2,5.9,1.1,7.6C1,9.9,1,12.1,1.1,14.4
	c0.1,1.6,1.5,3.1,3.2,3.2c4.4,0.3,8.9,0.3,13.3,0c1.7-0.1,3.2-1.6,3.2-3.2C21,12.1,21,9.9,20.9,7.6z M11.7,12.5L9.1,14V8l2.6,1.5
	l2.6,1.5L11.7,12.5z"/>
</svg>
